PathFileType	4	(X/Y/Z)	/Users/itak/Documents/Research/Walk-IL/dataset/trc/00360_00011.trc
DataRate	CameraRate	NumFrames	NumMarkers	Units	OrigDataRate	OrigDataStartFrame	OrigNumFrames
100.000000	100.000000	4	56	mm	100.000000	51	409
Frame#	Time	RPSI			LPSI			L3			STRN			T10			C7			CLAV			RBAK			LBAK			LSHO			LUPA			LAEL			LAOL			LWTS			LWPS			LFRA			LIFD			LHPS			LHTS			RSHO			RUPA			RAEL			RAOL			RWTS			RWPS			RFRA			RIFD			RHTS			RHPS			RBHD			LFHD			RFHD			LBHD			LHIP			RHIP			RASI			LASI			LKNE			LTHI			LANK			LTIP			LTOE			LMT1			LMT5			LHEE			RKNE			RTHI			RTIP			RTOE			RMT1			RMT5			RANK			RHEE			*53			*54			*55			
		X1	Y1	Z1	X2	Y2	Z2	X3	Y3	Z3	X4	Y4	Z4	X5	Y5	Z5	X6	Y6	Z6	X7	Y7	Z7	X8	Y8	Z8	X9	Y9	Z9	X10	Y10	Z10	X11	Y11	Z11	X12	Y12	Z12	X13	Y13	Z13	X14	Y14	Z14	X15	Y15	Z15	X16	Y16	Z16	X17	Y17	Z17	X18	Y18	Z18	X19	Y19	Z19	X20	Y20	Z20	X21	Y21	Z21	X22	Y22	Z22	X23	Y23	Z23	X24	Y24	Z24	X25	Y25	Z25	X26	Y26	Z26	X27	Y27	Z27	X28	Y28	Z28	X29	Y29	Z29	X30	Y30	Z30	X31	Y31	Z31	X32	Y32	Z32	X33	Y33	Z33	X34	Y34	Z34	X35	Y35	Z35	X36	Y36	Z36	X37	Y37	Z37	X38	Y38	Z38	X39	Y39	Z39	X40	Y40	Z40	X41	Y41	Z41	X42	Y42	Z42	X43	Y43	Z43	X44	Y44	Z44	X45	Y45	Z45	X46	Y46	Z46	X47	Y47	Z47	X48	Y48	Z48	X49	Y49	Z49	X50	Y50	Z50	X51	Y51	Z51	X52	Y52	Z52	X53	Y53	Z53	X54	Y54	Z54	X55	Y55	Z55	X56	Y56	Z56	

52	0.51	-501.4048767089844	952.3260498046875	813.82763671875	-549.2550048828125	957.579833984375	693.7433471679688	-538.5463256835938	1020.339172363281	749.328857421875	-316.5339050292969	1197.025390625	658.4215698242188	-550.4132080078125	1136.545043945312	727.6851806640625	-510.9889831542969	1380.064331054688	691.9639892578125	-357.9781494140625	1323.695190429688	662.8511352539062	-544.067626953125	1242.38525390625	771.8179931640625	-546.4970703125	1341.922241210938	593.9248046875	-473.5682678222656	1360.07470703125	522.2352905273438	-488.7059631347656	1242.088989257812	452.3174438476562	-421.4390258789062	1053.31640625	404.5905456542969	-467.4887390136719	1014.431640625	465.0868225097656	-204.1941528320312	923.846435546875	421.8577880859375	-234.0651397705078	886.4383544921875	370.7297668457031	-358.8307495117188	974.7964477539062	387.0427856445312	-89.74176788330078	811.1600952148438	406.8682250976562	-188.6928405761719	834.1099243164062	372.5557250976562	-146.9895172119141	875.5615234375	398.3603515625	-419.0993347167969	1368.58837890625	838.057373046875	-420.260986328125	1306.94873046875	903.578125	-426.8072814941406	1042.470703125	958.7667236328125	-464.8587646484375	1030.61474609375	873.4686279296875	-305.2199096679688	818.583740234375	922.5517578125	-344.7407836914062	801.3751831054688	986.5578002929688	-402.0010070800781	974.9629516601562	972.4802856445312	-285.0340881347656	645.4083862304688	935.171875	-271.32958984375	721.3314208984375	943.343017578125	-325.0751953125	719.40625	986.2071533203125	-411.4931030273438	1589.03369140625	758.5384521484375	-307.995849609375	1579.352294921875	578.1629028320312	-273.2768249511719	1581.77099609375	673.2236938476562	-485.9621887207031	1584.642822265625	634.7882080078125	-511.2117614746094	899.4978637695312	563.9412231445312	-380.9297790527344	904.004150390625	879.6729125976562	-305.4764099121094	936.9282836914062	798.1079711914062	-376.22607421875	922.2960815429688	569.58251953125	-503.9548645019531	445.5448913574219	618.482177734375	-494.50244140625	584.2806396484375	591.0257568359375	-651.9486694335938	53.6157341003418	724.2190551757812	-577.7651977539062	234.7373199462891	663.1485595703125	-440.9772338867188	43.85543823242188	743.6597290039062	-501.9453735351562	31.87557983398438	795.8009643554688	-532.0527954101562	45.00742340087891	687.1911010742188	-672.9668579101562	57.55466079711914	796.2212524414062	-197.8429260253906	474.8040771484375	822.2383422851562	-259.6676940917969	721.9442138671875	854.7212524414062	-148.6422729492188	368.9412536621094	810.5277709960938	63.83650588989258	122.1970367431641	706.9327392578125	3.37797474861145	99.57584381103516	679.9811401367188	5.751293182373047	75.99319458007812	794.66015625	-95.42427062988281	59.39094543457031	807.1394653320312	-156.9833374023438	47.02717590332031	776.590576171875	nan	nan	nan	nan	nan	nan	nan	nan	nan	
53	0.52	-488.5371398925781	950.0150756835938	813.0689697265625	-538.7217407226562	955.5371704101562	693.900390625	-526.7549438476562	1018.083923339844	748.6912841796875	-306.7785034179688	1194.536499023438	654.7442016601562	-539.8414306640625	1134.724243164062	727.173828125	-500.785888671875	1377.637939453125	690.3439331054688	-348.1190490722656	1321.255249023438	659.7905883789062	-533.1934814453125	1239.80126953125	770.47216796875	-537.3516845703125	1339.623413085938	592.6294555664062	-464.9932556152344	1357.715698242188	520.1856689453125	-480.5755004882812	1239.68798828125	450.4500732421875	-413.0051574707031	1051.00732421875	402.3875122070312	-459.4577331542969	1011.994995117188	462.5721740722656	-195.5393829345703	922.1846923828125	420.7393188476562	-224.7772674560547	884.8290405273438	368.9760131835938	-350.1213989257812	972.7777709960938	385.0286254882812	-80.53977966308594	810.0140380859375	406.214111328125	-179.2758483886719	832.723388671875	371.1624755859375	-137.9858703613281	874.201416015625	397.4601135253906	-407.4970092773438	1365.93115234375	835.6483154296875	-408.5665283203125	1304.457885742188	901.1705932617188	-416.7146606445312	1040.341674804688	957.3834228515625	-455.0809326171875	1028.296264648438	872.1992797851562	-297.0711059570312	815.0760498046875	921.3265991210938	-336.0024719238281	798.875244140625	985.833740234375	-392.2011413574219	972.714111328125	971.2682495117188	-279.1644287109375	641.6519165039062	935.1984252929688	-264.603515625	717.086669921875	941.8732299804688	-317.4585876464844	716.7473754882812	986.08056640625	-400.7728881835938	1586.429565429688	756.439208984375	-298.9612731933594	1577.339233398438	575.0408325195312	-263.3655700683594	1579.598388671875	669.779541015625	-476.4373168945312	1582.214111328125	633.3814697265625	-503.0776062011719	897.580810546875	563.3366088867188	-366.7820434570312	901.470458984375	876.6203002929688	-293.0950012207031	934.4561767578125	793.5018310546875	-367.9693908691406	920.2244873046875	566.2454833984375	-498.982421875	444.5104370117188	617.1026000976562	-488.7375793457031	583.0860595703125	589.5715942382812	-651.5203247070312	54.52145004272461	725.4154663085938	-575.1142578125	234.6468811035156	663.3019409179688	-440.6974487304688	43.64398193359375	743.5900268554688	-501.5353088378906	31.86433601379395	796.0740356445312	-531.91259765625	45.28644180297852	687.551025390625	-672.2168579101562	59.23651504516602	797.4783325195312	-186.7409820556641	471.3088073730469	818.90673828125	-247.4408874511719	718.3868408203125	850.462158203125	-134.5669860839844	368.0302734375	805.8743286132812	85.41816711425781	129.7343139648438	693.1716918945312	24.79889678955078	105.3624649047852	668.1257934570312	31.85273933410645	80.10420227050781	782.3935546875	-68.58975219726562	59.72405242919922	797.8954467773438	-130.9276733398438	45.53115081787109	769.2067260742188	nan	nan	nan	nan	nan	nan	nan	nan	nan	
54	0.53	-475.6651306152344	947.5979614257812	812.2361450195312	-528.0892333984375	953.3994750976562	693.9791870117188	-514.7723999023438	1015.725708007812	747.9334716796875	-296.913330078125	1192.039672851562	651.0736083984375	-529.1344604492188	1132.842651367188	726.64306640625	-490.4418640136719	1375.208618164062	688.7561645507812	-338.1435241699219	1318.800659179688	656.7261352539062	-522.2022705078125	1237.231079101562	769.1773681640625	-528.0823364257812	1337.308715820312	591.377197265625	-456.3369750976562	1355.31640625	518.1565551757812	-472.468505859375	1237.216064453125	448.6670227050781	-404.8036804199219	1048.545654296875	400.3135681152344	-451.6190795898438	1009.479614257812	460.2582092285156	-187.3133239746094	919.9894409179688	419.6502380371094	-216.0135650634766	882.70849609375	367.2828369140625	-341.7639465332031	970.4747924804688	383.1316528320312	-71.98355102539062	808.1232299804688	405.5600280761719	-170.4765930175781	830.7507934570312	369.8330078125	-129.5287780761719	872.1821899414062	396.5775451660156	-395.7245178222656	1363.264892578125	833.2474975585938	-396.6451416015625	1301.945922851562	898.7730712890625	-406.2598571777344	1038.184814453125	956.0131225585938	-445.1385498046875	1025.977172851562	871.0413818359375	-288.6979370117188	811.563720703125	919.9614868164062	-326.9879455566406	796.3042602539062	984.9686889648438	-382.0473937988281	970.4329833984375	970.0274658203125	-273.0350341796875	638.0123291015625	934.8836669921875	-257.7056579589844	712.7800903320312	940.1064453125	-309.5906372070312	713.9852905273438	985.67578125	-389.8958740234375	1583.84130859375	754.29638671875	-289.8389587402344	1575.31494140625	571.8627319335938	-253.3454895019531	1577.417236328125	666.2557373046875	-466.7855834960938	1579.801635742188	631.9588623046875	-494.7358093261719	895.6332397460938	562.6991577148438	-352.7120666503906	898.9370727539062	873.5859985351562	-280.7777709960938	931.973388671875	788.9236450195312	-359.53759765625	918.1510009765625	562.9437255859375	-493.7047424316406	443.4863586425781	615.7440795898438	-482.6401672363281	581.8815307617188	588.1197509765625	-651.0693969726562	55.60422515869141	726.5699462890625	-572.299072265625	234.6563262939453	663.430908203125	-440.4188232421875	43.43639373779297	743.5162963867188	-501.1280517578125	31.85787963867188	796.360595703125	-531.775146484375	45.5964241027832	687.9039306640625	-671.4326171875	61.14257431030273	798.7031860351562	-174.9967193603516	468.28173828125	815.2920532226562	-234.8995513916016	715.1821899414062	846.1232299804688	-120.7444458007812	367.1442260742188	801.1707153320312	104.1325149536133	135.6054077148438	680.3245849609375	43.33087158203125	109.8739700317383	657.1383056640625	54.72707748413086	83.39242553710938	770.940673828125	-44.93435287475586	60.08993911743164	789.2965698242188	-107.9645080566406	44.47239303588867	762.371337890625	nan	nan	nan	nan	nan	nan	nan	nan	nan	
55	0.54	-462.8388977050781	945.13720703125	811.3091430664062	-517.3496704101562	951.2061157226562	693.9373779296875	-502.6890258789062	1013.328186035156	747.059326171875	-286.9266662597656	1189.577880859375	647.4224243164062	-518.3001098632812	1130.911010742188	726.0431518554688	-479.9499816894531	1372.821411132812	687.1995239257812	-328.0390625	1316.37255859375	653.6625366210938	-511.0928344726562	1234.727905273438	767.924072265625	-518.6663818359375	1335.017456054688	590.152099609375	-447.5776977539062	1352.9169921875	516.14990234375	-464.3674621582031	1234.715576171875	446.9719848632812	-396.8412780761719	1045.965576171875	398.3802185058594	-443.9526977539062	1006.92919921875	458.1817626953125	-179.5270538330078	917.2747802734375	418.5723571777344	-207.8084564208984	880.0912475585938	365.6629028320312	-333.7703857421875	967.9114990234375	381.3605651855469	-64.09089660644531	805.491455078125	404.8747253417969	-162.3260040283203	828.1958618164062	368.5545349121094	-121.6318054199219	869.5145874023438	395.6881713867188	-383.7869262695312	1360.636474609375	830.8534545898438	-384.4870910644531	1299.455200195312	896.3870849609375	-395.4114074707031	1036.029052734375	954.629150390625	-434.98681640625	1023.696411132812	869.9671630859375	-280.0531921386719	808.0921630859375	918.4766235351562	-317.6891784667969	793.6905517578125	983.9632568359375	-371.5164184570312	968.1516723632812	968.7378540039062	-266.5682067871094	634.572021484375	934.259033203125	-250.5587463378906	708.5052490234375	938.1248779296875	-301.462890625	711.1473388671875	984.97998046875	-378.8579406738281	1581.3173828125	752.1053466796875	-280.6245422363281	1573.310180664062	568.6248168945312	-243.2127380371094	1575.2607421875	662.6484375	-456.9998474121094	1577.447265625	630.5177001953125	-486.1500244140625	893.6724853515625	562.0005493164062	-338.7727966308594	896.4862060546875	870.5769653320312	-268.5399475097656	929.554931640625	784.4170532226562	-350.890625	916.09375	559.69091796875	-488.0904235839844	442.4822998046875	614.3945922851562	-476.1893920898438	580.6747436523438	586.6757202148438	-650.5955200195312	56.89511108398438	727.615478515625	-569.2999877929688	234.7794036865234	663.4957275390625	-440.1504211425781	43.23910522460938	743.4414672851562	-500.7391967773438	31.85746383666992	796.6412963867188	-531.6350708007812	45.92895889282227	688.2264404296875	-670.6268920898438	63.29243469238281	799.827392578125	-162.5630493164062	465.7911376953125	811.290771484375	-221.9816284179688	712.4874267578125	841.6478271484375	-107.1174621582031	366.2153930664062	796.3289184570312	119.9816589355469	139.4322662353516	668.5266723632812	58.95465469360352	112.7407531738281	647.1499633789062	74.304931640625	85.5242919921875	760.4767456054688	-24.59025955200195	60.2452507019043	781.5433959960938	-88.23758697509766	43.63484191894531	756.2861938476562	nan	nan	nan	nan	nan	nan	nan	nan	nan	
